<mxfile host="app.diagrams.net" modified="2020-12-08T07:31:37.284Z" agent="5.0 (Windows NT 10.0; Win64; x64) AppleWebKit/537.36 (KHTML, like Gecko) Chrome/86.0.4240.198 Safari/537.36" etag="24_tsujDbtdKqgQ_rw3y" version="13.11.0" type="github">
  <diagram id="C5RBs43oDa-KdzZeNtuy" name="Page-1">
    <mxGraphModel dx="868" dy="488" grid="1" gridSize="10" guides="1" tooltips="1" connect="1" arrows="1" fold="1" page="1" pageScale="1" pageWidth="827" pageHeight="1169" math="0" shadow="0">
      <root>
        <mxCell id="WIyWlLk6GJQsqaUBKTNV-0" />
        <mxCell id="WIyWlLk6GJQsqaUBKTNV-1" parent="WIyWlLk6GJQsqaUBKTNV-0" />
        <mxCell id="V38cg3s5S29xR9XOTR3x-5" style="edgeStyle=orthogonalEdgeStyle;rounded=0;orthogonalLoop=1;jettySize=auto;html=1;entryX=0.5;entryY=0;entryDx=0;entryDy=0;" edge="1" parent="WIyWlLk6GJQsqaUBKTNV-1" source="V38cg3s5S29xR9XOTR3x-0" target="V38cg3s5S29xR9XOTR3x-3">
          <mxGeometry relative="1" as="geometry" />
        </mxCell>
        <mxCell id="V38cg3s5S29xR9XOTR3x-0" value="Bắt đầu" style="ellipse;whiteSpace=wrap;html=1;" vertex="1" parent="WIyWlLk6GJQsqaUBKTNV-1">
          <mxGeometry x="120" y="110" width="200" height="60" as="geometry" />
        </mxCell>
        <mxCell id="V38cg3s5S29xR9XOTR3x-2" value="Kết thúc" style="ellipse;whiteSpace=wrap;html=1;" vertex="1" parent="WIyWlLk6GJQsqaUBKTNV-1">
          <mxGeometry x="370" y="520" width="200" height="60" as="geometry" />
        </mxCell>
        <mxCell id="V38cg3s5S29xR9XOTR3x-3" value="Nhập tên người chơi &lt;br&gt;muốn kết bạn" style="shape=parallelogram;perimeter=parallelogramPerimeter;whiteSpace=wrap;html=1;fixedSize=1;" vertex="1" parent="WIyWlLk6GJQsqaUBKTNV-1">
          <mxGeometry x="145" y="220" width="150" height="60" as="geometry" />
        </mxCell>
        <mxCell id="V38cg3s5S29xR9XOTR3x-9" style="edgeStyle=orthogonalEdgeStyle;rounded=0;orthogonalLoop=1;jettySize=auto;html=1;" edge="1" parent="WIyWlLk6GJQsqaUBKTNV-1" target="V38cg3s5S29xR9XOTR3x-8">
          <mxGeometry relative="1" as="geometry">
            <mxPoint x="220" y="280" as="sourcePoint" />
          </mxGeometry>
        </mxCell>
        <mxCell id="V38cg3s5S29xR9XOTR3x-12" style="edgeStyle=orthogonalEdgeStyle;rounded=0;orthogonalLoop=1;jettySize=auto;html=1;entryX=0.5;entryY=0;entryDx=0;entryDy=0;" edge="1" parent="WIyWlLk6GJQsqaUBKTNV-1" source="V38cg3s5S29xR9XOTR3x-8" target="V38cg3s5S29xR9XOTR3x-11">
          <mxGeometry relative="1" as="geometry" />
        </mxCell>
        <mxCell id="V38cg3s5S29xR9XOTR3x-8" value="Gửi lời mời kết bạn" style="rounded=0;whiteSpace=wrap;html=1;" vertex="1" parent="WIyWlLk6GJQsqaUBKTNV-1">
          <mxGeometry x="160" y="320" width="120" height="60" as="geometry" />
        </mxCell>
        <mxCell id="V38cg3s5S29xR9XOTR3x-13" style="edgeStyle=orthogonalEdgeStyle;rounded=0;orthogonalLoop=1;jettySize=auto;html=1;entryX=0.5;entryY=0;entryDx=0;entryDy=0;" edge="1" parent="WIyWlLk6GJQsqaUBKTNV-1" target="V38cg3s5S29xR9XOTR3x-2">
          <mxGeometry relative="1" as="geometry">
            <mxPoint x="272.5" y="449.5" as="sourcePoint" />
            <mxPoint x="500" y="449.5" as="targetPoint" />
          </mxGeometry>
        </mxCell>
        <mxCell id="V38cg3s5S29xR9XOTR3x-14" value="&lt;font style=&quot;font-size: 13px&quot;&gt;Không đồng ý&lt;/font&gt;" style="edgeLabel;html=1;align=center;verticalAlign=middle;resizable=0;points=[];" vertex="1" connectable="0" parent="V38cg3s5S29xR9XOTR3x-13">
          <mxGeometry x="-0.0989" y="-5" relative="1" as="geometry">
            <mxPoint x="-3.5" y="-24.5" as="offset" />
          </mxGeometry>
        </mxCell>
        <mxCell id="V38cg3s5S29xR9XOTR3x-11" value="Xác nhận" style="rhombus;whiteSpace=wrap;html=1;" vertex="1" parent="WIyWlLk6GJQsqaUBKTNV-1">
          <mxGeometry x="167.5" y="420" width="105" height="60" as="geometry" />
        </mxCell>
        <mxCell id="V38cg3s5S29xR9XOTR3x-20" style="edgeStyle=orthogonalEdgeStyle;rounded=0;orthogonalLoop=1;jettySize=auto;html=1;" edge="1" parent="WIyWlLk6GJQsqaUBKTNV-1" source="V38cg3s5S29xR9XOTR3x-15" target="V38cg3s5S29xR9XOTR3x-2">
          <mxGeometry relative="1" as="geometry" />
        </mxCell>
        <mxCell id="V38cg3s5S29xR9XOTR3x-15" value="Kết bạn" style="rounded=0;whiteSpace=wrap;html=1;" vertex="1" parent="WIyWlLk6GJQsqaUBKTNV-1">
          <mxGeometry x="160" y="520" width="120" height="60" as="geometry" />
        </mxCell>
        <mxCell id="V38cg3s5S29xR9XOTR3x-18" style="edgeStyle=orthogonalEdgeStyle;rounded=0;orthogonalLoop=1;jettySize=auto;html=1;exitX=0.5;exitY=1;exitDx=0;exitDy=0;" edge="1" parent="WIyWlLk6GJQsqaUBKTNV-1" source="V38cg3s5S29xR9XOTR3x-11">
          <mxGeometry relative="1" as="geometry">
            <mxPoint x="260" y="490" as="sourcePoint" />
            <mxPoint x="220" y="520" as="targetPoint" />
          </mxGeometry>
        </mxCell>
        <mxCell id="V38cg3s5S29xR9XOTR3x-19" value="&lt;font style=&quot;font-size: 13px&quot;&gt;Đồng ý&lt;/font&gt;" style="edgeLabel;html=1;align=center;verticalAlign=middle;resizable=0;points=[];" vertex="1" connectable="0" parent="V38cg3s5S29xR9XOTR3x-18">
          <mxGeometry x="-0.0989" y="-5" relative="1" as="geometry">
            <mxPoint x="35" y="2" as="offset" />
          </mxGeometry>
        </mxCell>
      </root>
    </mxGraphModel>
  </diagram>
</mxfile>
